<svg width="24" height="24" viewBox="0 0 24 24" fill="none" xmlns="http://www.w3.org/2000/svg">
  <path d="M6.75 14.876l2-2-2-2M10.75 16.876h4" stroke="#ff394a" stroke-width="2" stroke-linecap="round" stroke-linejoin="round"/>
  <path d="M5 2C3.355 2 2 3.355 2 5v14c0 1.645 1.355 3 3 3h14c1.645 0 3-1.355 3-3v-5.508h-2V19c0 .571-.429 1-1 1H5c-.571 0-1-.429-1-1V5c0-.571.429-1 1-1h5.14V2H5z" fill="#ff394a"/>
  <path d="M18.209 10.174h3.473a.398.398 0 00.345-.597L20.29 6.57a.398.398 0 00-.69 0l-1.736 3.007a.398.398 0 00.345.597zM18.643 3.717l-1.427-2.473a.375.375 0 00-.65 0l-4.8 8.315a.41.41 0 00.356.615h2.858a.853.853 0 00.739-.426l2.924-5.067a.964.964 0 000-.964z" fill="#ff394a"/>
</svg>
